<?xml version="1.0" encoding="UTF-8"?><svg xmlns="http://www.w3.org/2000/svg" xmlns:xlink="http://www.w3.org/1999/xlink" fill-opacity="1" color-rendering="auto" color-interpolation="auto" text-rendering="auto" stroke="black" stroke-linecap="square" width="737" stroke-miterlimit="10" shape-rendering="auto" stroke-opacity="1" fill="black" stroke-dasharray="none" font-weight="normal" stroke-width="1" height="116" font-family="'Dialog'" font-style="normal" stroke-linejoin="miter" font-size="12px" stroke-dashoffset="0" image-rendering="auto">
  <!--Generated by ySVG 2.5-->
  <defs id="genericDefs"/>
  <g>
    <defs id="defs1">
      <clipPath clipPathUnits="userSpaceOnUse" id="clipPath1">
        <path d="M0 0 L737 0 L737 116 L0 116 L0 0 Z"/>
      </clipPath>
      <clipPath clipPathUnits="userSpaceOnUse" id="clipPath2">
        <path d="M-15 -121 L722 -121 L722 -5 L-15 -5 L-15 -121 Z"/>
      </clipPath>
      <clipPath clipPathUnits="userSpaceOnUse" id="clipPath3">
        <path d="M589 -77 L589 -49 L706 -49 L706 -77 Z"/>
      </clipPath>
      <clipPath clipPathUnits="userSpaceOnUse" id="clipPath4">
        <path d="M414 -48 L414 -20 L557 -20 L557 -48 Z"/>
      </clipPath>
      <clipPath clipPathUnits="userSpaceOnUse" id="clipPath5">
        <path d="M0 -48 L0 -20 L114 -20 L114 -48 Z"/>
      </clipPath>
      <clipPath clipPathUnits="userSpaceOnUse" id="clipPath6">
        <path d="M144 -48 L144 -20 L235 -20 L235 -48 Z"/>
      </clipPath>
      <clipPath clipPathUnits="userSpaceOnUse" id="clipPath7">
        <path d="M265 -48 L265 -20 L384 -20 L384 -48 Z"/>
      </clipPath>
      <clipPath clipPathUnits="userSpaceOnUse" id="clipPath8">
        <path d="M452 -106 L452 -78 L520 -78 L520 -106 Z"/>
      </clipPath>
    </defs>
    <g fill="white" text-rendering="geometricPrecision" shape-rendering="geometricPrecision" transform="translate(15,121)" stroke="white">
      <rect x="-15" width="737" height="116" y="-121" clip-path="url(#clipPath2)" stroke="none"/>
    </g>
    <g fill="rgb(232,232,224)" text-rendering="geometricPrecision" shape-rendering="geometricPrecision" transform="matrix(1,0,0,1,15,121)" stroke="rgb(232,232,224)">
      <rect x="589.4136" width="117.105" height="28" y="-77" clip-path="url(#clipPath2)" stroke="none"/>
    </g>
    <g stroke-linecap="butt" transform="matrix(1,0,0,1,15,121)" fill="teal" text-rendering="geometricPrecision" shape-rendering="geometricPrecision" stroke="teal" stroke-width="2" stroke-miterlimit="1.45">
      <rect fill="none" x="589.4136" width="117.105" height="28" y="-77" clip-path="url(#clipPath2)"/>
    </g>
    <g font-size="13px" stroke-linecap="butt" transform="matrix(1,0,0,1,15,121)" text-rendering="geometricPrecision" font-family="sans-serif" shape-rendering="geometricPrecision" stroke-miterlimit="1.45">
      <text x="596.4136" xml:space="preserve" y="-59.9395" clip-path="url(#clipPath3)" stroke="none">ClassDocMember</text>
    </g>
    <g fill="rgb(242,242,242)" text-rendering="geometricPrecision" shape-rendering="geometricPrecision" transform="matrix(1,0,0,1,15,121)" stroke="rgb(242,242,242)">
      <rect x="414.877" width="143.5366" height="28" y="-48" clip-path="url(#clipPath2)" stroke="none"/>
    </g>
    <g stroke-linecap="butt" transform="matrix(1,0,0,1,15,121)" fill="rgb(204,255,204)" text-rendering="geometricPrecision" shape-rendering="geometricPrecision" stroke="rgb(204,255,204)" stroke-width="2" stroke-miterlimit="1.45">
      <rect fill="none" x="414.877" width="143.5366" height="28" y="-48" clip-path="url(#clipPath2)"/>
    </g>
    <g font-size="13px" stroke-linecap="butt" transform="matrix(1,0,0,1,15,121)" text-rendering="geometricPrecision" font-family="sans-serif" shape-rendering="geometricPrecision" stroke-miterlimit="1.45">
      <text x="421.877" xml:space="preserve" y="-30.9395" clip-path="url(#clipPath4)" stroke="none">ConstantMemberBase</text>
    </g>
    <g fill="rgb(242,242,242)" text-rendering="geometricPrecision" shape-rendering="geometricPrecision" transform="matrix(1,0,0,1,15,121)" stroke="rgb(242,242,242)">
      <rect x="0" width="114.0073" height="28" y="-48" clip-path="url(#clipPath2)" stroke="none"/>
    </g>
    <g stroke-linecap="butt" transform="matrix(1,0,0,1,15,121)" fill="rgb(204,255,204)" text-rendering="geometricPrecision" shape-rendering="geometricPrecision" stroke="rgb(204,255,204)" stroke-width="2" stroke-miterlimit="1.45">
      <rect fill="none" x="0" width="114.0073" height="28" y="-48" clip-path="url(#clipPath2)"/>
    </g>
    <g font-size="13px" stroke-linecap="butt" transform="matrix(1,0,0,1,15,121)" text-rendering="geometricPrecision" font-family="sans-serif" shape-rendering="geometricPrecision" stroke-miterlimit="1.45">
      <text x="7" xml:space="preserve" y="-30.9395" clip-path="url(#clipPath5)" stroke="none">DocQualifierBase</text>
    </g>
    <g fill="rgb(242,242,242)" text-rendering="geometricPrecision" shape-rendering="geometricPrecision" transform="matrix(1,0,0,1,15,121)" stroke="rgb(242,242,242)">
      <rect x="144.0073" width="91.0161" height="28" y="-48" clip-path="url(#clipPath2)" stroke="none"/>
    </g>
    <g stroke-linecap="butt" transform="matrix(1,0,0,1,15,121)" fill="rgb(204,255,204)" text-rendering="geometricPrecision" shape-rendering="geometricPrecision" stroke="rgb(204,255,204)" stroke-width="2" stroke-miterlimit="1.45">
      <rect fill="none" x="144.0073" width="91.0161" height="28" y="-48" clip-path="url(#clipPath2)"/>
    </g>
    <g font-size="13px" stroke-linecap="butt" transform="matrix(1,0,0,1,15,121)" text-rendering="geometricPrecision" font-family="sans-serif" shape-rendering="geometricPrecision" stroke-miterlimit="1.45">
      <text x="151.0073" xml:space="preserve" y="-30.9395" clip-path="url(#clipPath6)" stroke="none">MemberBase</text>
    </g>
    <g fill="rgb(242,242,242)" text-rendering="geometricPrecision" shape-rendering="geometricPrecision" transform="matrix(1,0,0,1,15,121)" stroke="rgb(242,242,242)">
      <rect x="265.0234" width="119.8535" height="28" y="-48" clip-path="url(#clipPath2)" stroke="none"/>
    </g>
    <g stroke-linecap="butt" transform="matrix(1,0,0,1,15,121)" fill="rgb(204,255,204)" text-rendering="geometricPrecision" shape-rendering="geometricPrecision" stroke="rgb(204,255,204)" stroke-width="2" stroke-miterlimit="1.45">
      <rect fill="none" x="265.0234" width="119.8535" height="28" y="-48" clip-path="url(#clipPath2)"/>
    </g>
    <g font-size="13px" stroke-linecap="butt" transform="matrix(1,0,0,1,15,121)" text-rendering="geometricPrecision" font-family="sans-serif" shape-rendering="geometricPrecision" stroke-miterlimit="1.45">
      <text x="272.0234" xml:space="preserve" y="-30.9395" clip-path="url(#clipPath7)" stroke="none">MemberBaseTags</text>
    </g>
    <g fill="rgb(191,191,191)" text-rendering="geometricPrecision" shape-rendering="geometricPrecision" transform="matrix(1,0,0,1,15,121)" stroke="rgb(191,191,191)">
      <rect x="452.4297" width="68.4312" height="28" y="-106" clip-path="url(#clipPath2)" stroke="none"/>
    </g>
    <g stroke-linecap="butt" transform="matrix(1,0,0,1,15,121)" fill="rgb(204,255,255)" text-rendering="geometricPrecision" shape-rendering="geometricPrecision" stroke="rgb(204,255,255)" stroke-width="2" stroke-miterlimit="1.45">
      <rect fill="none" x="452.4297" width="68.4312" height="28" y="-106" clip-path="url(#clipPath2)"/>
    </g>
    <g font-size="13px" stroke-linecap="butt" transform="matrix(1,0,0,1,15,121)" text-rendering="geometricPrecision" font-family="sans-serif" shape-rendering="geometricPrecision" stroke-miterlimit="1.45">
      <text x="459.4297" xml:space="preserve" y="-88.9395" clip-path="url(#clipPath8)" stroke="none">Zucaritas</text>
    </g>
    <g fill="rgb(89,89,89)" text-rendering="geometricPrecision" shape-rendering="geometricPrecision" transform="matrix(1,0,0,1,15,121)" stroke-linecap="butt" stroke="rgb(89,89,89)">
      <path fill="none" d="M578.3833 -56 L576.1484 -56 L574.4723 -53.5 L573.9136 -46 L573.9136 -44 L573.4302 -39.625 L571.9799 -36.5 L569.5627 -34.625 L566.1787 -34 L558.4438 -34" clip-path="url(#clipPath2)"/>
      <path d="M589.3833 -56 L577.3833 -62 L577.3833 -50 Z" clip-path="url(#clipPath2)" stroke="none"/>
      <path fill="none" d="M132.978 -34 L114.0366 -34" clip-path="url(#clipPath2)"/>
      <path d="M143.978 -34 L131.978 -40 L131.978 -28 Z" clip-path="url(#clipPath2)" stroke="none"/>
      <path fill="none" d="M403.8477 -34 L384.9062 -34" clip-path="url(#clipPath2)"/>
      <path d="M414.8477 -34 L402.8477 -40 L402.8477 -28 Z" clip-path="url(#clipPath2)" stroke="none"/>
      <path fill="none" d="M253.9941 -34 L235.0527 -34" clip-path="url(#clipPath2)"/>
      <path d="M264.9941 -34 L252.9941 -40 L252.9941 -28 Z" clip-path="url(#clipPath2)" stroke="none"/>
      <path fill="none" d="M578.3833 -70 L576.1484 -70 L574.4723 -72.5 L573.9136 -80 L573.9136 -82 L573.2886 -86.375 L571.4136 -89.5 L568.2886 -91.375 L563.9136 -92 L520.8867 -92" clip-path="url(#clipPath2)"/>
      <path d="M589.3833 -70 L577.3833 -76 L577.3833 -64 Z" clip-path="url(#clipPath2)" stroke="none"/>
    </g>
  </g>
</svg>
