<?xml version="1.0" encoding="UTF-8"?><svg xmlns="http://www.w3.org/2000/svg" xmlns:xlink="http://www.w3.org/1999/xlink" fill-opacity="1" color-rendering="auto" color-interpolation="auto" text-rendering="auto" stroke="black" stroke-linecap="square" width="426" stroke-miterlimit="10" shape-rendering="auto" stroke-opacity="1" fill="black" stroke-dasharray="none" font-weight="normal" stroke-width="1" height="116" font-family="'Dialog'" font-style="normal" stroke-linejoin="miter" font-size="12px" stroke-dashoffset="0" image-rendering="auto">
  <!--Generated by ySVG 2.5-->
  <defs id="genericDefs"/>
  <g>
    <defs id="defs1">
      <clipPath clipPathUnits="userSpaceOnUse" id="clipPath1">
        <path d="M0 0 L426 0 L426 116 L0 116 L0 0 Z"/>
      </clipPath>
      <clipPath clipPathUnits="userSpaceOnUse" id="clipPath2">
        <path d="M-15 -121 L411 -121 L411 -5 L-15 -5 L-15 -121 Z"/>
      </clipPath>
      <clipPath clipPathUnits="userSpaceOnUse" id="clipPath3">
        <path d="M275 -77 L275 -49 L395 -49 L395 -77 Z"/>
      </clipPath>
      <clipPath clipPathUnits="userSpaceOnUse" id="clipPath4">
        <path d="M0 -48 L0 -20 L87 -20 L87 -48 Z"/>
      </clipPath>
      <clipPath clipPathUnits="userSpaceOnUse" id="clipPath5">
        <path d="M117 -48 L117 -20 L243 -20 L243 -48 Z"/>
      </clipPath>
      <clipPath clipPathUnits="userSpaceOnUse" id="clipPath6">
        <path d="M146 -106 L146 -78 L215 -78 L215 -106 Z"/>
      </clipPath>
    </defs>
    <g fill="rgb(232,232,224)" text-rendering="geometricPrecision" shape-rendering="geometricPrecision" transform="matrix(1,0,0,1,15,121)" stroke="rgb(232,232,224)">
      <rect x="275.5322" width="120.4312" height="28" y="-77" clip-path="url(#clipPath2)" stroke="none"/>
    </g>
    <g stroke-linecap="butt" transform="matrix(1,0,0,1,15,121)" fill="teal" text-rendering="geometricPrecision" shape-rendering="geometricPrecision" stroke="teal" stroke-width="2" stroke-miterlimit="1.45">
      <rect fill="none" x="275.5322" width="120.4312" height="28" y="-77" clip-path="url(#clipPath2)"/>
    </g>
    <g font-size="13px" stroke-linecap="butt" transform="matrix(1,0,0,1,15,121)" text-rendering="geometricPrecision" font-family="sans-serif" shape-rendering="geometricPrecision" stroke-miterlimit="1.45">
      <text x="282.9734" xml:space="preserve" y="-59.9395" clip-path="url(#clipPath3)" stroke="none">ClassDocOperator</text>
    </g>
    <g fill="rgb(242,242,242)" text-rendering="geometricPrecision" shape-rendering="geometricPrecision" transform="matrix(1,0,0,1,15,121)" stroke="rgb(242,242,242)">
      <rect x="0" width="87.7534" height="28" y="-48" clip-path="url(#clipPath2)" stroke="none"/>
    </g>
    <g stroke-linecap="butt" transform="matrix(1,0,0,1,15,121)" fill="rgb(204,255,204)" text-rendering="geometricPrecision" shape-rendering="geometricPrecision" stroke="rgb(204,255,204)" stroke-width="2" stroke-miterlimit="1.45">
      <rect fill="none" x="0" width="87.7534" height="28" y="-48" clip-path="url(#clipPath2)"/>
    </g>
    <g font-size="13px" stroke-linecap="butt" transform="matrix(1,0,0,1,15,121)" text-rendering="geometricPrecision" font-family="sans-serif" shape-rendering="geometricPrecision" stroke-miterlimit="1.45">
      <text x="7.2888" xml:space="preserve" y="-30.9395" clip-path="url(#clipPath4)" stroke="none">MethodBase</text>
    </g>
    <g fill="rgb(242,242,242)" text-rendering="geometricPrecision" shape-rendering="geometricPrecision" transform="matrix(1,0,0,1,15,121)" stroke="rgb(242,242,242)">
      <rect x="117.7534" width="126.7788" height="28" y="-48" clip-path="url(#clipPath2)" stroke="none"/>
    </g>
    <g stroke-linecap="butt" transform="matrix(1,0,0,1,15,121)" fill="rgb(204,255,204)" text-rendering="geometricPrecision" shape-rendering="geometricPrecision" stroke="rgb(204,255,204)" stroke-width="2" stroke-miterlimit="1.45">
      <rect fill="none" x="117.7534" width="126.7788" height="28" y="-48" clip-path="url(#clipPath2)"/>
    </g>
    <g font-size="13px" stroke-linecap="butt" transform="matrix(1,0,0,1,15,121)" text-rendering="geometricPrecision" font-family="sans-serif" shape-rendering="geometricPrecision" stroke-miterlimit="1.45">
      <text x="125.6008" xml:space="preserve" y="-30.9395" clip-path="url(#clipPath5)" stroke="none">MethodReturnBase</text>
    </g>
    <g fill="rgb(191,191,191)" text-rendering="geometricPrecision" shape-rendering="geometricPrecision" transform="matrix(1,0,0,1,15,121)" stroke="rgb(191,191,191)">
      <rect x="146.5591" width="69.1675" height="28" y="-106" clip-path="url(#clipPath2)" stroke="none"/>
    </g>
    <g stroke-linecap="butt" transform="matrix(1,0,0,1,15,121)" fill="rgb(204,255,255)" text-rendering="geometricPrecision" shape-rendering="geometricPrecision" stroke="rgb(204,255,255)" stroke-width="2" stroke-miterlimit="1.45">
      <rect fill="none" x="146.5591" width="69.1675" height="28" y="-106" clip-path="url(#clipPath2)"/>
    </g>
    <g font-size="13px" stroke-linecap="butt" transform="matrix(1,0,0,1,15,121)" text-rendering="geometricPrecision" font-family="sans-serif" shape-rendering="geometricPrecision" stroke-miterlimit="1.45">
      <text x="153.9272" xml:space="preserve" y="-88.9395" clip-path="url(#clipPath6)" stroke="none">Zucaritas</text>
    </g>
    <g fill="rgb(89,89,89)" text-rendering="geometricPrecision" shape-rendering="geometricPrecision" transform="matrix(1,0,0,1,15,121)" stroke-linecap="butt" stroke="rgb(89,89,89)">
      <path fill="none" d="M264.502 -56 L262.2671 -56 L260.5909 -53.5 L260.0322 -46 L260.0322 -44 L259.5488 -39.625 L258.0985 -36.5 L255.6814 -34.625 L252.2974 -34 L244.5625 -34" clip-path="url(#clipPath2)"/>
      <path d="M275.502 -56 L263.502 -62 L263.502 -50 Z" clip-path="url(#clipPath2)" stroke="none"/>
      <path fill="none" d="M106.7241 -34 L87.7827 -34" clip-path="url(#clipPath2)"/>
      <path d="M117.7241 -34 L105.7241 -40 L105.7241 -28 Z" clip-path="url(#clipPath2)" stroke="none"/>
      <path fill="none" d="M264.502 -70 L262.2671 -70 L260.5909 -72.5 L260.0322 -80 L260.0322 -82 L259.4072 -86.375 L257.5322 -89.5 L254.4072 -91.375 L250.0322 -92 L215.7698 -92" clip-path="url(#clipPath2)"/>
      <path d="M275.502 -70 L263.502 -76 L263.502 -64 Z" clip-path="url(#clipPath2)" stroke="none"/>
    </g>
  </g>
</svg>
